<?xml version="1.0" standalone="no"?>
<!DOCTYPE svg PUBLIC "-//W3C//DTD SVG 1.1//EN" "http://www.w3.org/Graphics/SVG/1.1/DTD/svg11.dtd" >
<svg xmlns="http://www.w3.org/2000/svg">
<metadata>Generated by IcoMoon</metadata>
<defs>
<font id="icomoon" horiz-adv-x="1024">
<font-face units-per-em="1024" ascent="960" descent="-64" />
<missing-glyph horiz-adv-x="1024" />
<glyph unicode="&#x20;" horiz-adv-x="512" d="" />
<glyph unicode="&#xe900;" glyph-name="chat" d="M883.049 585.778c-51.913 162.575-200.658 271.556-371.076 271.556s-319.208-108.981-371.021-271.556c-48.613-38.213-76.427-95.217-76.427-156.851 0-82.739 51.825-157.398 129.246-186.587 60.477-85.647 153.464-143.807 256.24-160.346 9.526-25.804 34.215-43.327 61.962-43.327 36.574 0 66.333 29.758 66.333 66.312 0 36.551-29.759 66.309-66.333 66.309-23.509 0-45.227-12.629-57.025-32.728-66.945 11.667-129.126 43.872-177.411 91.721 40.77 6.402 72.056 41.773 72.056 84.356v228.644c0 47.106-38.278 85.385-85.34 85.385-15.775 0-31.594-1.923-47.15-5.768 57.55 108.849 171.117 178.087 294.869 178.087 123.838 0 237.363-69.238 294.867-178.087-15.51 3.846-31.285 5.768-47.103 5.768-47.106 0-85.385-38.279-85.385-85.385v-228.647c0-47.103 38.279-85.405 85.385-85.405 110.115 0 199.694 89.601 199.694 199.695 0.001 61.636-27.791 118.638-76.382 156.852zM511.972 114.875c5.505 0 9.962-4.456 9.962-9.896 0-5.441-4.456-9.898-9.962-9.898-5.55 0-9.875 4.326-9.875 9.898 0 5.439 4.412 9.896 9.875 9.896zM264.253 572.275c15.949 0 28.971-12.957 28.971-28.993v-228.647c0-15.993-13.022-29.015-28.971-29.015-79.005 0-143.316 64.257-143.316 143.305s64.311 143.35 143.316 143.35zM759.736 285.687c-15.994 0-28.972 12.955-28.972 28.948v228.647c0 16.036 12.978 28.993 28.972 28.993 79.046 0 143.326-64.3 143.326-143.349 0-78.983-64.28-143.239-143.326-143.239z" />
<glyph unicode="&#xe901;" glyph-name="collect" d="M958.047 556.58c-3.233 10.574-11.885 18.222-22.285 19.838l-275.68 42.035-123.267 262.090c-9.351 19.882-40.333 19.882-49.64 0l-123.266-262.090-275.679-42.035c-10.444-1.617-19.052-9.264-22.329-19.838-3.278-10.487-0.524-21.98 6.991-29.758l199.473-204.061-47.105-288.133c-1.791-10.881 2.491-21.893 11.012-28.359 8.564-6.554 19.882-7.384 29.189-2.229l246.533 135.983 246.534-135.983c0.218-0.131 0.568-0.219 0.787-0.306 1.092-0.612 2.229-0.961 3.365-1.398 2.185-0.744 4.499-1.267 6.948-1.486 0.612 0 1.091-0.306 1.704-0.306 1.006 0 1.88 0.437 2.797 0.568 2.317 0.219 4.501 0.613 6.641 1.399 1.398 0.524 2.622 1.398 3.933 2.097 1.661 0.961 3.321 2.098 4.677 3.365 0.874 0.7 1.66 1.53 2.447 2.492 1.791 2.054 3.321 4.414 4.499 6.947 0.175 0.35 0.437 0.7 0.612 1.048 1.223 3.19 1.836 6.642 1.923 10.269 0.045 0.306 0.22 0.481 0.22 0.83 0 0.438-0.22 0.788-0.263 1.18-0.437 10.883-6.598 19.972-15.38 24.559l-2.142 1.267-46.625 26.26-209.74 115.708c-4.066 2.317-8.522 3.365-12.936 3.365s-8.826-1.048-12.891-3.365l-209.785-115.708 40.070 245.092c1.573 9.484-1.398 19.14-7.909 25.781l-169.759 173.649 234.561 35.787c9.001 1.355 16.779 7.297 20.799 15.862l104.914 223.024 104.87-223.024c4.021-8.565 11.798-14.551 20.843-15.862l234.606-35.787-169.76-173.648c-6.554-6.641-9.482-16.298-7.952-25.693l20.8-127.2c0.002 0.002 0.006 0.005 0.008 0.008 2.219-13.757 13.56-24.172 27.259-24.172 15.292 0 27.66 12.978 27.66 29.101 0 1.311-0.525 2.535-0.7 3.89 0.175 0 0.305 0.087 0.305 0.087l-18.353 113.085 199.519 204.062c7.516 7.734 10.225 19.227 6.947 29.714z" />
<glyph unicode="&#xe902;" glyph-name="comment" d="M806.827 829.971h-416.64c-14.629 0-26.543-11.889-26.543-26.518s11.912-26.469 26.543-26.469h416.64c54.734 0 99.253-44.568 99.253-99.325v-317.071c0-54.758-44.519-99.325-99.253-99.325h-267.893l-213.913-133.075c-13.319-8.103-20.961-8.975-23.655-8.975-1.31 0-2.111 0.242-2.014 0.145-0.292 0.437-0.655 1.893-0.655 3.785v138.119h-81.567c-54.734 0-99.229 44.568-99.229 99.325v317.071c0 54.758 44.495 99.325 99.229 99.325h36.708c14.605 0 26.543 11.84 26.543 26.469s-11.937 26.518-26.543 26.518h-36.708c-83.993 0-152.337-68.369-152.337-152.313v-317.071c0-84.018 68.345-152.386 152.337-152.386h28.532v-85.059c0-21.545 10.238-40.226 27.391-49.93 8.539-4.755 18.027-7.182 28.191-7.182 15.721 0 33.045 5.725 51.555 16.958l201.249 125.212h252.778c83.992 0 152.337 68.369 152.337 152.386v317.071c0.001 83.946-68.344 152.315-152.336 152.315zM785.040 669.263h-367.971c-14.629 0-26.566-11.889-26.566-26.518 0-14.654 11.937-26.614 26.566-26.614h367.971c14.606 0 26.543 11.96 26.543 26.614-0.001 14.629-11.937 26.518-26.543 26.518zM785.040 545.24h-238.028c-14.629 0-26.543-11.96-26.543-26.591 0-14.654 11.913-26.543 26.543-26.543h238.027c14.606 0 26.543 11.888 26.543 26.543 0 14.629-11.936 26.591-26.541 26.591zM785.040 412.384h-111.747c-14.654 0-26.615-11.912-26.615-26.493 0-14.654 11.96-26.543 26.615-26.543h111.747c14.606 0 26.543 11.888 26.543 26.543-0.001 14.582-11.937 26.493-26.543 26.493z" />
<glyph unicode="&#xe903;" glyph-name="cost" d="M873.894 170.332c-1.891 4.273-4.416 10.122-4.803 12.405-1.094 6.409-3.133 43.087-5.099 79.548-4.831 88.094-12.162 221.194-23.594 269.84-15.584 66.344-156.356 152.106-211.070 183.275l99.672 112.49c6.626 7.453 8.302 18.108 4.174 27.188-4.079 9.031-13.108 14.88-23.038 14.88-7.937 0-10.582 2.063-17.818 7.647-9.297 7.088-23.326 17.841-48.304 17.841-25.126 0-39.156-10.777-48.477-17.963-7.090-5.462-9.736-7.525-17.675-7.525-7.959 0-10.607 2.063-17.742 7.647-9.274 7.088-23.257 17.841-48.212 17.841-25.074 0-39.082-10.753-48.549-17.988-6.991-5.438-9.565-7.501-17.527-7.501-7.937 0-10.534 2.063-17.623 7.573-9.297 7.138-23.28 17.914-48.38 17.914-25.028 0-39.034-10.777-48.404-17.988-7.015-5.438-9.686-7.501-17.551-7.501-9.976 0-19.008-5.849-23.086-14.88-4.078-8.909-2.452-19.59 4.127-27.115l99.6-112.661c-54.861-31.192-195.171-116.689-210.803-183.275-11.507-48.454-18.813-181.457-23.643-269.451l-0.171-2.767c-1.407-26.243-3.785-70.227-4.904-77.171-0.388-2.063-2.889-7.889-5.364-13.594-10.948-24.664-36.535-82.413 35.198-118.267 27.965-13.96 141.352-50.225 327.226-50.225 148.997 0 292.22 32.722 327.2 50.225 71.638 35.903 46.123 93.606 34.641 119.555zM357.374 833.691c1.771 1.238 3.496 2.574 5.001 3.763 6.773 5.243 9.613 7.405 17.455 7.405 7.792 0 10.414-1.991 17.526-7.453 9.297-7.112 23.256-17.963 48.477-17.963s39.203 10.851 48.672 18.158c6.968 5.316 9.515 7.258 17.404 7.258 7.768 0 10.343-1.991 17.478-7.405 9.249-7.161 23.329-18.011 48.476-18.011 25.296 0 39.229 10.851 48.674 18.132 6.991 5.293 9.636 7.284 17.478 7.284 7.863 0 10.461-1.991 17.719-7.478 1.554-1.189 3.156-2.452 4.904-3.689l-85.81-96.856h-137.762l-85.691 96.856zM816.679 95.955c-24.759-12.334-155.965-44.909-304.625-44.909-175.070 0-281.322 33.304-304.674 44.909-27.213 13.641-24.445 23.52-11.192 53.452 3.714 8.519 7.234 16.554 8.617 24.882 1.456 8.787 2.816 33.524 5.608 82.777 4.418 81.71 11.821 218.45 22.381 263.455 8.57 36.218 109.237 108.436 200.196 158.419h158.029c90.96-49.983 191.701-122.201 200.22-158.444 10.536-44.665 17.939-180.727 22.358-262.024 2.67-49.227 4.2-75.324 5.68-84.088 1.334-8.326 4.733-16.313 9.005-25.852 12.525-28.425 15.561-38.938-11.603-52.578zM620.514 320.496c12.817 0 22.89 10.075 22.89 22.94 0 12.986-10.267 23.521-22.89 23.521h-67.729l67.41 131.303 7.819 14.638c2.986 5.656 3.518 12.332 1.359 18.303-0.268 0.68-0.486 1.335-0.849 1.991v1.456l-0.341-0.704c-2.282 4.296-5.801 7.549-9.733 9.054-4.906 3.326-10.926 4.272-16.727 2.84-6.214-1.578-11.555-5.728-14.59-11.458l-74.621-145.359-75.179 144.994c-5.801 10.147-19.25 14.299-30.124 9.25-6.384-3.156-10.9-8.351-12.696-14.518-1.651-5.631-0.874-11.506 2.039-16.361l75.179-145.432h-68.795c-12.356 0-22.382-10.048-22.382-22.405 0-13.959 9.395-24.057 22.382-24.057h85.521v-48.21h-85.521c-12.356 0-22.382-10.291-22.382-22.989 0-13.278 10.025-24.105 22.382-24.105h85.521v-62.021c0-12.648 10.292-22.965 22.963-22.965 13.229 0 23.546 10.075 23.546 22.965v62.021h85.546c12.21 0 22.89 10.73 22.89 22.915 0 13.546-10.073 24.179-22.89 24.179h-85.546v48.21h85.546z" />
<glyph unicode="&#xe904;" glyph-name="date" d="M327.429 750.022c16.752 0 27.967 11.215 27.967 27.967v89.508c0 16.775-11.214 27.966-27.967 27.966-16.799 0-27.967-11.191-27.967-27.966v-89.507c0-16.752 11.168-27.968 27.967-27.968zM500.811 750.022c16.752 0 27.966 11.215 27.966 27.967v89.508c-5.583 16.775-16.799 27.966-27.966 27.966-16.799 0-27.967-11.191-27.967-27.966v-89.507c0-16.752 11.168-27.968 27.967-27.968zM668.61 750.022c16.749 0 27.965 11.215 27.965 27.967v89.508c0 16.775-11.215 27.966-27.965 27.966-16.801 0-27.967-11.191-27.967-27.966v-89.507c5.584-16.752 16.75-27.968 27.967-27.968zM791.643 845.137c-16.752 0-27.967-11.214-27.967-27.966 0-16.799 11.215-27.968 27.967-27.968 50.349 0 89.483-39.181 89.483-89.507v-55.932h-738.294v55.933c0 50.325 39.134 89.507 89.483 89.507 16.8 0 27.967 11.169 27.967 27.968 0 16.752-11.166 27.966-27.967 27.966-78.315 0-145.415-61.54-145.415-145.439v-553.721c5.584-83.898 67.1-145.439 145.415-145.439h559.328c78.315 0 145.415 61.542 145.415 145.439v553.72c-5.584 78.292-67.1 145.439-145.415 145.439zM881.126 140.37c0-44.741-39.134-89.507-89.483-89.507h-559.329c-50.349 0-89.483 39.182-89.483 89.507v447.462h738.294v-447.462zM493.868 393.257h36.221c20.926 0 37.822 12.478 37.822 28.015 0 15.391-16.897 28.111-37.822 28.111h-36.221c-20.926 0-37.822-12.721-37.822-28.111 0-15.537 16.896-28.015 37.822-28.015zM270.136 393.257h36.221c20.927 0 37.822 12.478 37.822 28.015 0 15.391-16.897 28.111-37.822 28.111h-36.221c-20.927 0-37.822-12.721-37.822-28.111 0-15.537 16.897-28.015 37.822-28.015zM493.868 224.925h36.221c20.926 0 37.822 12.477 37.822 27.967 0 15.633-16.897 27.965-37.822 27.965h-36.221c-20.926 0-37.822-12.332-37.822-27.965 0-15.49 16.896-27.967 37.822-27.967zM270.136 224.925h36.221c20.927 0 37.822 12.477 37.822 27.967 0 15.633-16.897 27.965-37.822 27.965h-36.221c-20.927 0-37.822-12.332-37.822-27.965 0-15.49 16.897-27.967 37.822-27.967z" />
<glyph unicode="&#xe905;" glyph-name="guidebook" d="M354.776 776.695c17.972 0 36.009-11.379 53.524-33.805 19.906-25.462 37.776-63.112 53.045-111.936 31.453-100.432 48.78-238.83 48.78-389.666 0-14.978 12.129-27.126 27.105-27.126 14.979 0 27.127 12.148 27.127 27.126 0 89.471-5.971 175.008-17.289 251.56 11.982 36.655 27.73 66.88 45.683 87.578 19.2 22.175 39.856 32.929 63.135 32.929 27.936 0 59.618-24.192 84.704-64.714 30.123-48.656 46.723-113.394 46.723-182.226 0-14.979 12.127-27.128 27.103-27.128s27.127 12.149 27.127 27.128c0 78.777-19.469 153.643-54.836 210.787-35.567 57.456-83.247 90.406-130.819 90.406-38.84 0-74.847-17.867-104.137-51.651-7.822-9.029-15.185-19.157-22.030-30.288-5.035 21.675-10.567 42.229-16.601 61.491-47.553 151.897-112.372 183.765-158.345 183.765-35.302 0-68.356-18.139-98.311-53.919-25.773-30.808-48.678-74.179-68.043-128.891-38.608-109.085-59.87-253.577-59.87-406.828 0-14.978 12.128-27.126 27.105-27.126s27.147 12.148 27.147 27.126c0 147.259 20.136 285.303 56.747 388.73 32.516 91.842 75.574 146.677 115.223 146.677zM873.521 186.892c-6.741 3.931-15.458 7.654-27.417 11.648-19.743 6.636-45.536 13.148-72.85 20.055-14.186 3.576-29.041 7.342-43.373 11.192 2.808 0.105 5.699 0.166 8.718 0.249 37.526 0.875 71.933 0 72.287-0.020 14.934-0.353 27.438 11.444 27.833 26.398 0.395 14.977-11.443 27.438-26.42 27.832-1.767 0.042-43.808 1.103-87.285-0.332-26.084-0.851-47.304-2.455-63.071-4.743-10.65-1.582-19.055-3.454-25.69-5.783-14.375-5.077-23.217-13.564-26.274-25.213-2.808-10.651 0.188-21.738 8.154-30.432 3.975-4.305 9.113-8.051 16.102-11.795 29.434-15.601 78.382-27.958 125.708-39.939 13.5-3.391 26.502-6.701 38.401-9.882-154.894-33.409-366.284-39.858-477.14-35.635-14.977 0.584-27.563-11.108-28.144-26.065-0.563-14.956 11.108-27.563 26.065-28.146 21.155-0.79 44.309-1.206 68.71-1.206 55.291 0.021 116.784 2.037 174.593 5.928 76.302 5.118 186.739 16.142 279.497 39.589 13.835 3.513 23.819 7.030 31.391 11.107 19.222 10.275 22.092 24.713 22.092 32.409-0.002 9.151-3.789 22.299-21.884 32.784z" />
<glyph unicode="&#xe906;" glyph-name="help" d="M511.979 895.428c-246.726 0-447.428-200.739-447.428-447.464 0-80.98 21.92-160.357 63.357-229.54l46.971 28.109c-36.374 60.697-55.565 130.317-55.565 201.431 0 216.504 176.16 392.701 392.665 392.701s392.702-176.197 392.702-392.701c0-216.506-176.196-392.629-392.702-392.629-42.056 0-83.457 6.627-122.999 19.626-9.721 3.205-19.335 6.772-28.692 10.743l-21.228-50.466c10.742-4.479 21.665-8.632 32.807-12.236 45.078-14.893 92.267-22.43 140.112-22.43 246.725 0 447.428 200.703 447.428 447.393 0.001 246.726-200.702 447.464-447.427 447.464zM592.813 438.897c28.037 24.76 46.863 45.879 56.474 63.211 9.65 17.296 14.456 36.193 14.456 56.73 0 35.501-13.692 65.832-41.072 90.811-27.383 25.051-64.050 37.54-110.036 37.54-43.405 0-78.359-11.651-104.758-34.919-26.435-23.376-42.274-56.948-47.627-100.787l59.315-7.064c5.17 32.769 15.948 56.766 32.443 72.24 16.422 15.329 37.031 23.048 61.572 23.048 25.489 0 46.971-8.446 64.486-25.524 17.588-16.932 26.327-36.704 26.327-59.133 0-12.453-2.985-23.887-8.957-34.373-6.008-10.487-19.007-24.505-38.997-42.201-19.99-17.624-33.863-31.060-41.546-40.199-10.486-12.708-18.096-25.197-22.794-37.615-6.408-16.458-9.612-36.010-9.612-58.695 0-3.859 0.108-9.576 0.328-17.333h55.492c0.438 23.124 2.003 39.799 4.805 50.067 2.804 10.232 7.028 19.371 12.854 27.272 5.751 7.903 18.060 20.21 36.847 36.923zM479.281 274.645h65.76v-65.833h-65.76v65.833z" />
<glyph unicode="&#xe907;" glyph-name="hotel" d="M847.544 661.553h-91.514v111.855c0 61.753-50.101 111.856-111.88 111.856h-467.762c-61.753 0-111.831-50.102-111.831-111.856v-762.67h893.508l1.335 61.026v477.934c0 61.777-50.078 111.856-111.856 111.856zM695.004 71.763h-569.446v691.449c0 30.901 30.148 61.026 61.025 61.026h447.423c40.658 0 60.998-30.124 60.998-61.026v-691.449zM898.375 71.763h-142.368v528.765h81.345c40.684 0 61.024-30.149 61.024-61.001v-467.763zM481.515 519.209h-142.466c-16.822-0.048-30.44-13.691-30.44-30.536 0-0.049 0-0.049 0-0.097 0-16.799 13.618-30.392 30.392-30.392 0.024 0 0.048 0 0.048 0h142.466c16.821 0.025 30.464 13.642 30.464 30.488 0 16.944-13.643 30.538-30.464 30.538zM481.515 336.133h-142.466c-16.822-0.047-30.44-13.665-30.44-30.49 0-0.024 0-0.071 0-0.095 0-16.799 13.618-30.415 30.392-30.415 0.024 0 0.048 0 0.048 0h142.466c16.821 0.047 30.464 13.689 30.464 30.509 0 16.946-13.643 30.491-30.464 30.491zM481.515 702.211h-142.466c-16.822-0.024-30.44-13.666-30.44-30.512 0-0.025 0-0.049 0-0.097 0-16.798 13.618-30.391 30.392-30.391 0.024 0 0.048 0 0.048 0h142.466c16.821 0.048 30.464 13.691 30.464 30.488 0 16.967-13.643 30.512-30.464 30.512z" />
<glyph unicode="&#xe908;" glyph-name="img" d="M825.008 724.873h-734.862c-14.113 0-25.605-11.491-25.605-25.605s11.492-25.605 25.605-25.605h709.301v-550.863h-679.763v469.46c0 14.113-11.492 25.605-25.605 25.605-14.135 0-25.584-11.492-25.584-25.605v-495.020c0-14.115 11.449-25.605 25.584-25.605h730.929c14.093 0 25.563 11.448 25.563 25.561v602.072c0.001 14.114-11.469 25.605-25.563 25.605zM933.854 824.367h-734.864c-14.113 0-25.561-11.492-25.561-25.605v-29.625c0-14.113 11.449-25.605 25.561-25.605s25.605 11.492 25.605 25.605v4.021h683.652v-550.864h-5.155c-14.068 0-25.519-11.491-25.519-25.604 0-14.112 11.45-25.604 25.519-25.604h30.763c14.069 0 25.561 11.491 25.561 25.604v602.071c0 14.114-11.493 25.606-25.562 25.606zM414.123 517.672c-7.844-0.131-15.097-3.802-19.902-10.050l-249.674-327.363c-8.52-11.275-6.335-27.353 4.85-35.875 4.456-3.453 9.831-5.243 15.511-5.243 8.040 0 15.447 3.627 20.362 10.050l229.967 301.627 89.444-109.413c8.543-10.53 25.409-12.234 35.94-3.626 10.989 8.913 12.585 25.081 3.69 36.004l-109.955 134.494c-4.872 5.986-12.126 9.395-20.232 9.395zM614.552 372.867c-7.733-0.088-14.965-3.628-19.771-9.744l-136-172.553c-8.674-11.055-6.816-27.221 4.26-35.961 4.589-3.627 10.051-5.505 15.818-5.505 7.887 0 15.249 3.539 20.1 9.7l116.338 147.646 117.691-142.969c8.608-10.444 25.474-12.192 36.025-3.453 10.794 8.958 12.388 25.125 3.475 36.049l-137.903 167.481c-4.411 5.331-11.533 8.741-20.033 9.309zM654.532 648.363c-61.849 0-112.143-50.379-112.143-112.34 0-61.916 50.293-112.297 112.143-112.297 61.939 0 112.274 50.38 112.274 112.297 0 61.959-50.334 112.34-112.274 112.34zM654.532 469.345c-36.681 0-66.569 29.932-66.569 66.679 0 36.791 29.888 66.678 66.569 66.678 36.814 0 66.702-29.887 66.702-66.678 0-36.748-29.888-66.679-66.702-66.679z" />
<glyph unicode="&#xe909;" glyph-name="link" d="M751.097 398.537c-131.625-127.255-263.247-254.508-394.868-381.614-54.193-52.444-134.974 32.706-80.564 85.299 117.127 113.229 234.254 226.387 351.382 339.654-117.71 117.127-235.42 234.399-353.2 351.563-53.54 53.318 27.24 138.471 80.633 85.221 132.278-131.547 264.409-263.169 396.617-394.827 21.852-21.852 22.435-63.664 0-85.295v0 0z" />
<glyph unicode="&#xe90a;" glyph-name="more" d="M802.277 646.582c0 122.102-132.276 248.939-270.426 248.939-226.723 0-310.171-160.331-310.171-244.823 0-129.312 55.649-193.192 119.529-257.095 63.903-63.881 52.104-145.288 52.104-157.647s6.872-20.955 11.801-23.697c10.149-5.706 29.354-2.065 29.354-2.065l173.259 24.231c0 0 20.467 4.615 25.080 23.697 0 0-6.701 62.327 25.251 96.34 23.21 24.695 144.22 141.091 144.22 292.121zM609.11 367.865c-16.122-28.601-18.21-61.038-18.21-61.038l-2.768-17.093-7.866-2.257-135.845-19.569c0 0-9.907 6.872-9.907 9.954 0 16.583-2.5 73.009-21.293 103.603-21.124 34.426-83.279 96.898-104.475 130.647-56.595 90.175-54.605 177.228 17.020 254.001 71.601 76.76 177.242 77.877 187.755 78.314 46.737 1.942 107.752-3.011 183.698-79.346 96.852-97.373 33.484-221.356 20.616-251.926-16.511-39.162-90.684-113.36-108.724-145.288zM596.631 180.33l-166.049-21.704c-16.923-2.236-29.063-16.22-27.096-31.298s17.311-25.494 34.234-23.283l166.049 21.705c16.922 2.233 29.062 16.244 27.095 31.321-1.989 15.052-17.31 25.468-34.233 23.259zM596.363 77.506l-152.136-22.264c-15.514-2.284-26.295-16.292-24.109-31.335 2.185-15.052 16.558-25.395 32.072-23.114l152.136 22.241c15.513 2.282 26.318 16.328 24.11 31.358-2.187 15.029-16.559 25.373-32.073 23.114z" />
<glyph unicode="&#xe90b;" glyph-name="notice" d="M517.732 577.847c-16.868 0-30.582-13.712-30.582-30.556v-259.088c0-16.868 13.712-30.582 30.582-30.582 16.842 0 30.582 13.712 30.582 30.582v259.088c0 16.844-13.74 30.556-30.582 30.556zM887.518 535.933c16.843 0 30.582 13.712 30.582 30.582v205.159c0 68.2-55.507 123.683-123.709 123.683h-564.801c-68.225 0-123.732-55.483-123.732-123.683v-647.346c0-68.2 55.507-123.683 123.732-123.683h450.607c9.565 0 16.432 4.514 20.655 8.398l4.153 3.397 202.487 186.445 2.597 3.254c2.015 2.255 3.546 4.514 4.685 6.916 0.485 0.97 0.802 1.94 1.165 3.035 0.899 2.595 1.482 5.34 2.161 10.071v158.123c0 16.844-13.739 30.557-30.582 30.557-16.868 0-30.605-13.713-30.605-30.557v-127.566h-176.716c-16.842 0-30.556-13.711-30.556-30.557v-160.382h-420.051c-34.488 0-62.522 28.058-62.522 62.548v647.346c0 34.488 28.033 62.545 62.522 62.545h564.802c34.49 0 62.522-28.057 62.522-62.545v-205.159c-0.001-16.869 13.736-30.582 30.604-30.582zM710.803 191.58h98.37l-98.37-90.578v90.578zM517.732 698.788c-16.868 0-30.582-13.712-30.582-30.58s13.712-30.58 30.582-30.58c16.842 0 30.582 13.712 30.582 30.58s-13.74 30.58-30.582 30.58z" />
<glyph unicode="&#xe90c;" glyph-name="open" d="M965.086 678.413c-12.74 11.826-33.266 11.899-45.855 0.181l-391.251-364.028-392.194 364.973c-12.594 11.756-33.117 11.683-45.929-0.181-12.664-11.828-12.733-30.932-0.145-42.651l414.034-385.283c0.397-0.418 0.542-0.964 0.979-1.38 12.74-11.831 33.265-11.902 45.854-0.186l414.653 385.865c12.663 11.72 12.589 30.862-0.145 42.69z" />
<glyph unicode="&#xe90d;" glyph-name="phone" d="M552.135 842.13c195.184 0 353.974-158.831 353.974-354.040 0-14.703 11.97-26.632 26.652-26.632 14.727 0 26.655 11.929 26.655 26.632 0 224.615-182.689 407.347-407.281 407.347-14.682 0-26.612-11.973-26.612-26.653 0-14.682 11.93-26.654 26.612-26.654zM958.542 194.394c-1.442 15.294-8.172 29.56-19.225 40.681-3.454 3.409-7.343 6.447-11.32 8.87l-168.967 131.435c-22.983 22.807-60.079 26.521-87.915 5.197l-43.431-43.869-0.349 0.221-3.846-4.241c-13.941-15.511-40.244-13.808-52.127 3.058l-5.418 7.647-2.362-3.366c-61.608 45.488-115.31 98.883-159.662 158.877l4.153 2.228-8.739 6.118c-9.088 6.422-14.506 16.778-14.506 27.79 0 9.787 4.238 18.875 11.885 25.561l13.412 11.579h-1.748l36.312 36.136c8.913 11.666 13.632 25.474 13.632 39.981 0 17.74-6.948 34.519-18.964 46.6l-131.478 169.056c-2.971 4.785-5.985 8.718-9.219 11.842-12.584 12.65-29.364 19.597-47.236 19.597-84.637 0-186.883-96.784-186.883-216.99 0-30.716 6.424-60.538 19.183-88.743l-0.743-0.874 1.967-3.933c121.559-242.029 321.768-442.303 563.841-563.927l4.937-1.445 0.132 0.088c28.095-12.626 57.807-19.007 88.349-19.007 120.164 0 216.903 102.246 216.903 187.211l-0.217 6.621h-0.35zM742.206 53.87c-24.029 0-47.539 5.333-69.866 15.863-2.535 1.181-5.2 2.184-6.509 2.359-226.299 115.486-414.406 303.592-529.237 528.229-0.656 2.841-1.66 5.615-2.884 8.215-10.487 22.023-15.818 45.531-15.818 69.867 0 93.421 81.011 163.727 133.531 163.727 4.85 0 8.084-2.492 9.613-4.022 0.044-0.044 0.612-0.567 1.705-2.359 0.787-1.311 1.704-2.556 2.709-3.934l131.784-169.448c1.18-1.619 2.448-3.017 3.933-4.545 1.442-1.487 3.889-4.675 3.889-9.526 0-2.36-0.612-4.458-0.917-5.287l-45.094-44.744c-17.478-16.474-27.527-39.5-27.527-63.227 0-22.262 8.476-43.476 22.896-58.508 0.611-1.006 1.222-1.967 1.922-2.95 49.726-68.711 110.724-129.534 182.253-181.271 16.035-15.402 37.884-24.227 60.036-24.227 22.414 0 44.524 9.065 60.211 24.534 0.917 0.743 1.791 1.573 2.797 2.537l43.651 44.283c6.552 4.041 13.284 0.635 16.080-1.987 1.309-1.311 2.665-2.578 4.239-3.824l169.449-131.85c1.268-1.049 2.623-2.009 3.977-2.839 1.486-0.96 2.272-1.574 2.447-1.618 2.621-2.709 3.934-5.942 3.934-9.613 0-1.662 0.043-3.32 0.219-3.714-2.84-52.388-72.753-130.123-163.422-130.123zM552.135 641.745c84.722 0 153.675-68.951 153.675-153.719 0-14.704 11.928-26.655 26.653-26.655 14.681 0 26.655 11.951 26.655 26.655 0 114.131-92.851 206.983-206.983 206.983-14.682 0-26.612-11.972-26.612-26.652 0-14.683 11.93-26.612 26.612-26.612z" />
<glyph unicode="&#xe90e;" glyph-name="replace" d="M948.58 534.697c-11.996 9.96-31.16 7.806-40.798-4.601l-24.375-31.452c-1.341 12.115-3.233 24.17-5.619 36.052-39.464 196.226-208.46 338.692-401.801 338.692-28.133 0-56.469-3.086-84.251-9.028-221.707-47.876-364.58-273.516-318.393-503.055 39.432-196.226 208.397-338.693 401.74-338.693 28.161 0 56.526 3.029 84.338 9.086 77.028 16.601 147.795 56.381 205.167 115.734 1.078 1.106 1.805 2.272 2.214 2.97l1.105 1.689c2.446 4.194 3.697 8.736 3.697 13.104 0 14.269-11.27 25.86-25.19 25.86-4.66 0-9.086-1.34-12.988-3.844l-0.64 0.523-4.952-5.126c-49.363-50.964-111.101-85.558-178.52-100.062-24.142-5.243-48.75-7.863-73.183-7.863-168.181 0-315.132 124.060-349.497 294.891-40.217 200.127 84.047 396.761 277.068 438.347 24.143 5.242 48.751 7.864 73.155 7.864 168.209 0 315.16-124.062 349.526-294.95 1.833-9.029 3.376-18.231 4.541-27.434l-29.588 24.58c-11.997 9.959-31.219 7.805-40.799-4.601-9.843-12.698-7.893-31.337 4.368-41.588l83.493-69.369h0.293c5.65-3.844 13.453-5.418 19.222-4.718 7.92 0.817 14.879 4.718 19.831 11.125l65.322 84.281c9.784 12.696 7.833 31.334-4.487 41.585z" />
<glyph unicode="&#xe90f;" glyph-name="return" d="M253.468 329.075c-10.967 10.965-29.972 10.923-40.937 0-11.228-11.273-11.228-29.622 0-40.937l279-279.043c5.461-5.461 12.715-8.475 20.447-8.475s14.985 3.014 20.446 8.475c11.272 11.273 11.272 29.622 0 40.893l-278.955 279.087zM930.433 477.095h-767.096l369.086 369.218c11.272 11.272 11.272 29.578 0 40.893-10.923 10.879-29.927 10.922-40.893 0l-418.455-418.63c-8.301-8.257-10.747-20.621-6.247-31.522 4.501-10.836 14.986-17.846 26.695-17.846h836.911c15.946 0 28.923 12.998 28.923 28.923-0.001 15.945-12.977 28.965-28.923 28.965z" />
<glyph unicode="&#xe910;" glyph-name="share" d="M884.288 477.752c-15.989 0-29.053-13.020-29.053-29.053v-376.767c0-7.296-5.899-13.236-13.195-13.236h-706.129c-7.296 0-13.237 5.94-13.237 13.236v706.612c0 7.296 5.941 13.237 13.237 13.237h376.329c15.99 0 29.010 12.976 29.010 29.053 0 15.989-13.020 29.009-29.010 29.009h-376.329c-39.276 0-71.299-31.979-71.299-71.299v-706.612c0-39.274 32.023-71.298 71.299-71.298h706.13c39.32 0 71.3 32.023 71.3 71.298v376.767c0 16.033-12.976 29.053-29.054 29.053zM883.894 895.366h-185.848c-16.034 0-29.009-13.020-29.009-29.010 0-16.076 12.974-29.053 29.009-29.053h164.397l-510.102-507.393c-11.316-11.36-11.359-29.707-0.13-41.066 5.722-5.724 13.193-8.563 20.62-8.563s14.81 2.839 20.49 8.475l507.918 505.209v-159.418c0-16.077 13.020-29.053 29.054-29.053 16.032 0 29.052 12.976 29.052 29.053v185.325c0 41.635-33.857 75.493-75.45 75.493z" />
<glyph unicode="&#xe911;" glyph-name="traffic" d="M941.897 866.621c-17.185 17.161-43.060 22.234-65.415 12.743l-775.462-328.069c-23.665-10-38.204-33.981-36.263-59.565 1.989-25.583 20.122-47.016 45.025-53.254l323.19-80.779 80.803-323.191c4.006-15.972 20.195-25.703 36.143-21.699 15.971 4.004 25.73 20.169 21.724 36.141l-89.47 357.924-357.924 89.494 775.461 328.069-252.385-596.524c-6.384-15.172 0.704-32.648 15.897-39.056 15.122-6.457 32.648 0.68 39.079 15.826l252.338 596.524c9.492 22.331 4.443 48.229-12.742 65.414z" />
<glyph unicode="&#xe912;" glyph-name="visa" d="M154.547 124.236v647.528c0 34.498 28.040 62.563 62.538 62.563h420.17v-160.4c0-16.873 13.717-30.591 30.566-30.591h176.763v-127.578c0-16.873 13.741-30.59 30.612-30.59 16.85 0 30.592 13.716 30.592 30.59v158.168c-0.68 4.734-1.263 7.453-2.16 10.074-0.364 1.092-0.68 2.063-1.167 3.034-1.142 2.379-2.671 4.638-4.685 6.92l-2.597 3.253-202.547 186.475-4.153 3.422c-4.223 3.884-11.094 8.377-20.659 8.377h-450.736c-68.243 0-123.766-55.497-123.766-123.718v-647.528c0-68.221 55.523-123.718 123.766-123.718h146.806v61.179h-146.805c-34.499 0-62.539 28.065-62.539 62.538zM698.434 795.119l98.395-90.627h-98.395v90.627zM912.343 379.102l-46.247 52.656c-12.309 12.26-28.527 18.354-44.769 18.257-16.29-0.097-32.58-6.361-45.060-18.79l-357.047-292.204v-138.503h136.925l355.786 288.659c24.787 24.86 24.956 65.354 0.412 89.925zM533.347 64.78h-49.889v51.469l337.384 270.208c0 0.025 0 0.097 0.072 0.097l0.049 0.073 45.691-53.216-333.306-268.631z" />
<glyph unicode="&#xe913;" glyph-name="standard" d="M645.010 415.252h-410.408c-14.711 0-26.655-13.814-26.655-31 0-17.163 11.944-30.977 26.655-30.977h410.359c14.712 0 26.654 13.814 26.654 30.977 0 17.186-11.942 31.048-26.605 31zM925.492 705.129c-31.996-0.897-29.422-31.947-29.422-45.88v-546.23c0-27.385-22.284-49.598-49.667-49.598h-688.756c-18.159 0-32.82 14.688-32.82 32.772v703.563c0 18.085 14.711 32.748 32.82 32.748h570.337c18.109 0 32.772-14.663 32.772-32.748v-614.422c0-13.763 0.243-48.333 35.102-47.434 32.92 0.921 33.016 33.671 33.016 47.434v660.521c0 27.384-22.236 49.595-49.668 49.595h-639.814c-41.221 0-74.575-33.33-74.575-74.405v-746.094c0-41.076 33.404-74.407 74.575-74.407h745.22c41.125 0 74.528 33.331 74.528 74.407v584.928c-0.001 13.472 0.677 46.22-33.648 45.249zM234.602 256.317c-14.711 0-26.655-13.862-26.655-31 0-17.163 11.944-31.026 26.655-31.026h410.359c14.712 0 26.654 13.863 26.654 31.026 0 17.138-11.942 31-26.605 31h-410.408zM645.010 574.234h-410.408c-14.711 0-26.655-13.862-26.655-31 0-17.115 11.944-30.975 26.655-30.975h410.359c14.712 0 26.654 13.861 26.654 30.975 0 17.138-11.942 31.048-26.605 31zM542.031 672.26c17.381 0 31.511 14.056 31.511 31.511 0 17.404-14.082 31.51-31.511 31.51h-192.895c-17.382 0-31.559-14.105-31.559-31.51 0-17.455 14.177-31.511 31.559-31.511h192.895z" />
<glyph unicode="&#xe914;" glyph-name="meal" d="M922.822 133.503h-821.669c-20.507 0-36.602-16.079-36.602-36.573 0-20.506 16.095-36.585 36.602-36.585h821.67c20.506 0 36.585 16.079 36.585 36.585-0.001 20.494-16.080 36.573-36.586 36.573zM549.213 707.925l-0.64 0.059v54.53h115.059c20.448 0 36.528 16.065 36.528 36.572s-16.080 36.571-36.528 36.571h-308.476c-20.565 0-36.702-16.064-36.702-36.571s16.138-36.572 36.702-36.572h120.245v-54.53l-0.758-0.059c-229.943-18.643-410.091-214.52-410.091-445.921v-59.727h894.857v59.727c-0.001 230.615-180.194 426.478-410.195 445.921zM886.235 275.432h-748.497v0.789c7.514 201.906 171.919 360.062 374.25 360.062 202.27 0 366.673-158.155 374.249-360.062v-0.789z" />
<glyph unicode="&#xe915;" glyph-name="trip" d="M511.93 539.789c36.413 0 65.935 29.52 65.935 65.91 0 36.414-29.521 65.935-65.935 65.935s-65.935-29.52-65.935-65.935c0-36.391 29.519-65.91 65.935-65.91zM845.728 307.975l-48.358-47.534c31.657-20.102 50.398-42.58 50.398-64.21 0-61.323-143.619-129.805-335.79-129.805s-335.79 68.483-335.79 129.805c0 23.596 21.751 48.261 59.089 69.744l-43.794 50.835c-51.126-32.771-81.228-74.236-81.228-120.507 0-111.574 172.701-195.765 401.723-195.765s401.723 84.141 401.723 195.765c-0.096 42.119-24.857 80.428-67.973 111.671zM511.93 149.741l218.389 218.439c55.981 55.883 90.55 133.107 90.55 218.412 0 170.638-138.375 308.868-308.939 308.868-170.566 0-308.941-138.302-308.941-308.94 0-85.307 34.521-162.505 90.502-218.413l218.439-218.365zM511.93 829.55c133.956 0 243.006-108.977 243.006-243.030 0-64.867-25.296-125.921-71.226-171.73l-171.779-171.827-171.828 171.828c-45.882 45.882-71.179 106.863-71.179 171.73 0.001 134.053 109.051 243.029 243.008 243.029z" />
<glyph unicode="&#xe916;" glyph-name="clip" d="M894.599 838.344c-41.608 36.801-97.125 57.095-156.258 57.095-59.111 0-114.58-20.294-156.235-57.095l-187.502-165.507c-1.772-1.505-2.694-3.497-3.957-5.317-1.941-0.946-3.981-1.893-5.632-3.278l-231.487-204.299c-118.645-104.917-118.645-275.718 0-380.731 57.556-50.736 134.144-78.652 215.612-78.652 81.565 0 158.056 27.917 215.514 78.652l175.292 154.051c14.929 11.506 24.589 29.131 24.589 48.937 0 34.666-29.469 62.827-65.833 62.827-36.436 0-65.858-28.161-65.858-62.827 0-19.151 8.957-36.265 23.133-47.772l-133.852-117.54c-46.148-40.783-107.613-63.114-172.985-63.114-65.422 0-126.814 22.332-173.057 63.114-95.195 84.234-95.195 221.245 0 305.576l231.561 204.275c1.77 1.602 2.985 3.617 4.174 5.511 1.87 0.971 3.86 1.699 5.438 3.059l187.379 165.458c30.369 26.751 70.643 41.462 113.707 41.462 43.086 0 83.335-14.711 113.726-41.462 30.394-26.847 47.194-62.532 47.194-100.402 0-38.015-16.8-73.699-47.194-100.573l-406.655-359.003c-15.294-13.449-37.141-21.169-59.984-21.169-22.94 0-44.837 7.72-60.032 21.169-33.015 29.227-33.015 76.854 0 106.083l263.386 232.53c11.967-15.876 31.461-26.241 53.574-26.241 36.34 0 65.811 28.11 65.811 62.8s-29.471 62.848-65.811 62.848c-16.993 0-32.407-6.118-44.108-16.167-0.85-0.632-1.799-1.311-2.72-2.039l-312.712-276.252c-56.464-49.933-56.464-131.134 0-181.141 27.334-24.202 63.843-37.481 102.611-37.481s75.228 13.278 102.563 37.481l406.609 359.125c41.826 36.875 64.815 85.934 64.815 138.029 0.001 52.193-22.989 101.131-64.814 137.981z" />
<glyph unicode="&#xe917;" glyph-name="city" d="M512.002 895.473c-189.020 0-342.208-157.994-342.208-352.793 0-89.678 33.746-173.239 87.203-235.533l222.037-289.613c17.431-22.724 46.077-22.625 63.605 0l221.163 289.613c56.081 62.781 90.36 143.428 90.36 235.533 0 194.798-153.188 352.793-342.16 352.793zM512.002 365.944c-94.777 0-171.492 79.093-171.492 176.735s76.715 176.784 171.492 176.784c94.68 0 171.445-79.143 171.445-176.784s-76.763-176.735-171.445-176.735z" />
<glyph unicode="&#xe918;" glyph-name="search" d="M863.522 495.95c0 220.249-179.183 399.431-399.476 399.431-220.249 0-399.464-179.182-399.464-399.431 0-220.293 179.215-399.475 399.464-399.475 220.293-0.001 399.476 179.182 399.476 399.475zM464.046 155.319c-187.827 0-340.62 152.803-340.62 340.631 0 187.783 152.793 340.587 340.62 340.587 187.872 0 340.675-152.803 340.675-340.587 0-187.828-152.803-340.631-340.675-340.631zM779.842 221.751l-7.014-7.676c-8.336-9.175-17.423-18.218-26.909-26.908l-7.675-7.014 179.535-179.534 41.596 41.597-179.534 179.534z" />
<glyph unicode="&#xe919;" glyph-name="select" d="M947.49 747.932c-15.889 15.889-41.654 15.889-57.542 0l-513.577-513.579-242.418 242.363c-15.889 15.888-41.597 15.888-57.487 0-15.889-15.889-15.889-41.654 0-57.543l271.16-271.106c7.613-7.613 17.986-11.917 28.744-11.917 10.813 0 21.13 4.303 28.799 11.917l542.321 542.377c15.89 15.889 15.89 41.598 0.001 57.487z" />
<glyph unicode="&#xe91a;" glyph-name="checkbox" d="M887.797 895.408h-751.637c-39.542 0-71.589-32.070-71.589-71.568v-751.637c0-39.584 32.048-71.61 71.589-71.61h751.637c39.542 0 71.589 32.027 71.589 71.61v751.636c0 39.499-32.049 71.569-71.589 71.569zM895.203 655.363l-477.207-477.249c-6.728-6.728-15.816-10.486-25.319-10.486-9.482 0-18.591 3.758-25.298 10.486l-238.625 238.559c-13.981 13.98-13.981 36.656 0 50.638s36.615 13.981 50.596 0l213.327-213.304 451.931 451.95c13.959 13.981 36.612 13.981 50.594 0 13.981-13.981 13.981-36.614 0-50.595z" />
<glyph unicode="&#xe91b;" glyph-name="check" d="M877.707 895.359h-731.458c-45.020 0-81.63-36.436-81.63-81.259v-732.2c0-44.78 36.61-81.26 81.63-81.26h731.458c45.020 0 81.63 36.48 81.63 81.26v732.2c0.001 44.823-36.61 81.259-81.63 81.259zM908.682 81.9c0-16.863-13.891-30.582-30.974-30.582h-731.458c-17.082 0-30.974 13.717-30.974 30.582v732.2c0 16.907 13.892 30.626 30.974 30.626h731.458c17.082 0 30.974-13.718 30.974-30.626v-732.2z" />
<glyph unicode="&#xe91c;" glyph-name="other" d="M686.069 176.948c16.312 0 29.588 11.676 29.588 26.046v166.88c0 14.345-13.276 26.021-29.588 26.021-16.31 0-29.567-11.676-29.567-26.021v-166.88c0-14.37 13.256-26.046 29.567-26.046zM914.068 694.216h-151.733l-162.123 145.883c-6.045 5.461-13.835 8.229-21.628 7.307-7.89-0.728-15.026-4.733-20.050-11.214-10.486-13.351-8.885-33.376 3.616-44.59l108.258-97.385h-316.864l108.236 97.385c12.502 11.19 14.128 31.215 3.641 44.566-5.073 6.529-12.209 10.51-20.098 11.263-8.084 0.728-15.56-1.894-21.604-7.306l-162.122-145.907h-151.709c-25.002 0-45.319-21.798-45.319-48.572v-124.448c0-26.775 20.317-48.523 45.319-48.523h26.822l33.473-359.951c3.422-36.678 31.918-64.301 66.314-64.301h550.959c34.372 0 62.869 27.623 66.291 64.301l33.449 359.951h26.872c25.002 0 45.318 21.748 45.318 48.523v124.446c0 26.775-20.317 48.573-45.319 48.573zM794.861 119.006c-0.413-4.125-3.594-7.258-7.404-7.258h-550.959c-3.883 0-7.015 3.060-7.404 7.258l-32.89 353.665h631.523l-32.867-353.665zM900.209 536h-776.459v94.862h776.459v-94.862zM516.857 176.948c16.313 0 29.589 11.676 29.589 26.046v166.88c0 14.345-13.276 26.021-29.589 26.021-16.31 0-29.589-11.676-29.589-26.021v-166.88c0.001-14.37 13.278-26.046 29.589-26.046zM347.622 176.948c16.312 0 29.59 11.676 29.59 26.046v166.88c0 14.345-13.277 26.021-29.59 26.021s-29.564-11.676-29.564-26.021v-166.88c0-14.37 13.253-26.046 29.564-26.046z" />
<glyph unicode="&#xe91d;" glyph-name="cruise" d="M940.259 106.122c-9.708 4.711-17.718 9.396-25.047 14.689l-4.878 2.89c-27.694 13.181-56.817 20.44-87.349 21.604l93.586 237.679c23.687 35.056 19.731 82.786-9.343 113.474-4.564 4.758-9.614 8.643-14.978 11.556l-70.746 38.868v153.117c-0.051 34.28-27.572 62.152-61.332 62.152h-21.457v49.89c0 34.255-27.475 62.175-61.235 62.175h-330.951c-33.76 0-61.258-27.92-61.284-62.175v-49.89h-21.455c-33.785 0-61.258-27.872-61.258-62.152v-153.117l-70.797-38.868c-5.46-2.987-10.485-6.846-14.999-11.582-29.102-30.662-33.032-78.392-9.903-112.284l115.672-293.37c-28.445 2.526-55.579 12.72-79.437 30.032l-4.878 2.89c-8.932 4.223-18.689 7.986-29.878 11.456-8.566 2.769-17.644 1.895-25.533-2.331-8.080-4.223-13.979-11.409-16.697-20.244-5.388-17.941 4.612-37.073 22.305-42.633 7.67-2.427 14.198-4.906 18.931-6.992 64.754-45.616 148.025-54.55 222.755-20.055l5.315 3.207c27.523 20.344 59.876 31.099 93.587 31.099 22.111 0 44.027-4.928 64.219-14.106 38.227-27.043 82.885-41.319 129.121-41.319 31.868 0 63.25 6.991 93.805 21.12l5.388 3.207c27.476 20.344 59.78 31.099 93.516 31.099 22.157 0 44.050-4.928 64.146-14.081 9.465-6.63 19.878-12.723 31.843-18.572 8.156-3.984 17.306-4.467 25.752-1.458 8.544 3.012 15.387 9.251 19.27 17.529 8.008 16.897 0.921 37.339-15.777 45.495zM478.293 139.723c-62.812 14.688-127.008 0.97-178.994-35.929-3.641-1.605-7.282-3.108-10.922-4.42 0.244 4.903-0.533 9.858-2.378 14.566l-119.412 302.694-1.237 1.941c-7.79 8.205-8.008 21.413-0.63 29.862l313.575 172.346v-481.060zM459.388 688.056l-189.48-104.077v109.905h21.479c33.736 0 61.234 27.871 61.284 62.126v49.891h318.672v-49.891c0-34.256 27.475-62.126 61.235-62.126h21.48v-109.93l-188.584 103.544c-15.436 12.188-34.416 18.889-53.49 18.889-19.077 0-38.058-6.702-52.595-18.332zM746.095 134.43c-21.575-7.089-42.013-17.383-60.699-30.637-46.333-20.589-97.228-17.481-139.677 6.481v510.51l313.502-172.346c7.401-8.449 7.184-21.658-0.632-29.862l-112.493-284.146z" />
<glyph unicode="&#xe91e;" glyph-name="flow" d="M845.915 895.45h-667.873c-53.965 0-97.856-43.891-97.856-97.831v-699.188c0-53.989 43.891-97.879 97.856-97.879h667.873c53.965 0 97.857 43.892 97.857 97.879v699.188c0 53.941-43.892 97.831-97.857 97.831zM659.526 824.637h81.033v-229.332l-15.682 14.857c-13.206 12.502-34.012 12.599-47.386 0.292l-17.964-16.581v230.764zM874.39 98.429c0-15.731-12.769-28.5-28.475-28.5h-667.873c-15.707 0-28.476 12.769-28.476 28.5v699.189c0 15.707 12.769 28.476 28.476 28.476h412.127v-311.384c0-13.74 8.157-26.218 20.78-31.777 12.624-5.561 27.311-3.035 37.41 6.287l52.365 48.26 50.686-47.969c9.906-9.37 25.002-12.089 37.553-6.651 12.722 5.462 20.95 17.964 20.95 31.85v311.383h36.002c15.707 0 28.475-12.769 28.475-28.525v-699.14zM385.962 251.561h-123.733c-19.105 0-34.69-15.537-34.69-34.667s15.585-34.664 34.69-34.664h123.733c19.129 0 34.69 15.536 34.69 34.664 0 19.13-15.56 34.667-34.69 34.667zM588.181 414.014h-325.952c-19.105 0-34.69-15.538-34.69-34.666 0-19.13 15.585-34.666 34.69-34.666h325.951c19.104 0 34.689 15.536 34.689 34.666 0.001 19.128-15.584 34.666-34.688 34.666z" />
<glyph unicode="&#xe91f;" glyph-name="material" d="M796.633 363.637c45.355 34.168 72.267 87.482 72.267 143.588 0 99.64-82.459 180.741-183.775 180.741s-183.778-81.102-183.778-180.742c0-56.106 26.94-109.42 72.319-143.588-93.067-48.001-162.665-150.87-162.665-241.387 0-18.030 14.901-32.686 33.222-32.686 18.323 0 33.197 14.657 33.197 32.686 0 80.665 93.066 204.211 207.705 204.211 114.662 0 207.727-123.545 207.727-204.211 0-18.030 14.875-32.686 33.195-32.686 18.322 0 33.223 14.657 33.223 32.686 0 90.518-69.596 193.385-162.637 241.388zM685.125 391.833c-64.696 0-117.358 51.763-117.358 115.391 0 63.605 52.661 115.365 117.358 115.365 64.744 0 117.403-51.761 117.403-115.365 0-63.627-52.659-115.391-117.403-115.391zM432.237 418.383c0 18.030-14.878 32.686-33.173 32.686h-180.719c-18.32 0-33.222-14.657-33.222-32.686 0-18.031 14.901-32.713 33.222-32.713h180.718c18.296 0 33.174 14.681 33.174 32.713zM338.832 95.728h-120.486c-48.121 0-87.264 42.879-87.264 95.587v513.347c0 52.709 39.142 95.613 87.264 95.613h542.080c48.121 0 87.264-42.903 87.264-95.613v-49.407c0-18.006 14.874-32.687 33.196-32.687 18.3 0 33.197 14.681 33.197 32.687v49.407c0 88.77-68.919 161.013-153.659 161.013h-542.079c-84.717 0-153.66-72.243-153.66-161.013v-513.347c0-88.77 68.942-160.989 153.66-160.989h120.486c18.274 0 33.151 14.658 33.151 32.687-0.001 18.031-14.877 32.714-33.151 32.714zM218.346 628.755c-18.32 0-33.197-14.657-33.197-32.712 0-18.006 14.877-32.711 33.197-32.711h240.901c18.296 0 33.223 14.705 33.223 32.711 0 18.055-14.926 32.712-33.223 32.712h-240.901z" />
<glyph unicode="&#xe920;" glyph-name="address" d="M337.838 511.020c0-96.039 78.131-174.169 174.172-174.169 96.037 0 174.12 78.13 174.12 174.169s-78.083 174.169-174.12 174.169c-96.040 0-174.172-78.13-174.172-174.169zM635.612 511.020c0-68.158-55.42-123.616-123.602-123.616-68.185 0-123.654 55.458-123.654 123.616s55.469 123.603 123.654 123.603c68.182-0.001 123.602-55.445 123.602-123.603zM512.010 895.246c-211.879 0-384.265-172.386-384.265-384.263 0-103.486 40.777-200.629 114.831-273.603l235.948-222.843c8.784-8.736 20.965-13.783 33.486-13.783 12.519 0 24.701 5.047 33.386 13.685 43.24 41.319 126.368 120.546 131.222 124.719 30.476 26.062 53.77 36.252 75.996 33.387 8.882-1.115 17.714 2.33 23.44 9.172 3.203 3.846 5.241 8.479 5.921 13.512 1.747 14.393-8.492 27.53-22.761 29.291-6.21 0.777-11.937 1.15-17.47 1.15-33.194 0-63.864-14.475-99.483-46.912-7.28-6.697-107.929-101.307-130.3-122.292l-232.939 219.458c-63.33 62.822-98.174 146.29-98.174 235.049 0 182.553 148.547 331.062 331.113 331.062 182.612 0 331.11-148.509 331.11-331.062 0-70.586-24.362-141.654-68.668-200.108l-3.057-4.601 0.146-0.132c-2.184-3.895-3.347-8.176-3.347-12.616 0-14.719 11.986-26.69 26.69-26.69 4.658 0 9.269 1.286 13.297 3.688l1.407-1.325 4.173 5.281c53.965 68.559 82.499 150.34 82.499 236.515-0.001 211.876-172.326 384.262-384.201 384.262z" />
<glyph unicode="&#xe921;" glyph-name="tickett" d="M206.603 168.012l-18.546-1.068c-15.342-0.923-28.573 10.828-29.52 26.218l-36.462 612.439c-0.462 7.768 2.257 14.881 7.064 20.173 4.71 5.364 11.458 8.884 19.154 9.346l76.372 4.611c7.040-17.6 17.576-33.938 32.724-47.338 28.597-25.368 65.569-35.321 100.747-30.393 0 0 18.571 64.575 17.697 64.064-25.369-14.76-58.312-12.382-81.447 8.084-7.622 6.748-13.619 15.537-17.94 26.242-8.91 22.31-31.099 36.463-55.084 34.958l-76.371-4.54c-22.358-1.334-42.8-11.238-57.633-27.941-14.807-16.701-22.31-38.235-20.926-60.52l36.486-612.535c2.694-46.101 42.437-81.279 88.414-78.487l50.301 2.939c0.002 0.001-32.94 9.54-35.030 53.749zM271.252 646.882c-15.366-0.874-27.117-14.129-26.195-29.495l13.255-222.736c0.946-15.365 45.663 171.78 45.663 171.78l-3.229 54.232c-0.922 15.393-14.152 27.142-29.495 26.218zM897.675 753.212l-73.678 21.679c-14.616 4.247-29.813 2.331-42.532-4.587-7.454-4.127-14.008-9.856-19.032-17.139-6.655-9.492-14.422-16.702-23.379-21.655-33.769-18.304-76.203-5.973-94.652 27.796-4.857 8.91-7.6 19.349-7.941 30.782-0.898 24.058-17.066 44.838-40.029 51.612l-73.486 21.508c-21.411 6.336-44.060 3.86-63.701-6.821-19.542-10.755-33.816-28.428-40.178-49.887l-172.772-588.768c-13.011-44.279 12.454-90.841 56.636-103.853l73.703-21.68c14.541-4.249 29.86-2.308 42.508 4.684 7.356 3.936 13.789 9.615 18.838 16.753 6.53 9.198 14.299 16.362 23.209 21.192 33.646 18.428 76.105 5.998 94.579-27.746 4.807-8.861 7.479-19.081 7.962-30.371 0.971-23.792 17.117-44.353 40.008-51.076l73.872-21.679c21.459-6.314 44.085-3.764 63.627 6.819 19.762 10.806 34.013 28.475 40.25 49.913l172.772 588.672c13.063 44.281-12.402 90.939-56.585 103.854zM900.783 665.114l-172.824-588.794c-2.161-7.283-7.087-13.181-13.376-16.605-6.24-3.424-13.788-4.442-21.314-2.21l-73.8 21.631c-0.777 18.597-5.219 37.266-14.759 54.599-33.257 60.884-109.535 83.316-170.37 50.033-17.406-9.517-31.293-22.795-41.999-37.992l-73.703 21.654c-14.712 4.272-23.184 19.834-18.886 34.618l172.847 588.72c2.185 7.453 7.112 13.256 13.401 16.63 6.287 3.423 13.862 4.515 21.216 2.232l73.484-21.434c0.657-18.935 5.076-37.944 14.736-55.568 33.209-60.909 109.461-83.244 170.368-50.082 17.625 9.661 31.682 23.256 42.461 38.791l73.655-21.678c14.759-4.345 23.232-19.809 18.864-34.545zM559.337 590.902c-14.808 4.467-30.296-4.079-34.616-18.886l-62.852-214.092c-4.346-14.712 4.102-30.296 18.815-34.545 14.783-4.395 30.392 4.101 34.69 18.813l62.875 214.116c4.347 14.808-4.223 30.248-18.911 34.594zM719.827 543.781c-14.761 4.467-30.202-4.054-34.595-18.864l-62.826-214.186c-4.323-14.64 4.152-30.176 18.886-34.522 14.856-4.368 30.25 4.126 34.617 18.886l62.85 214.092c4.346 14.809-4.077 30.296-18.933 34.594z" />
<glyph unicode="&#xe922;" glyph-name="entertainment" d="M662.807 610.801c-30.963 0-56.16-25.196-56.16-56.19s25.197-56.16 56.16-56.16c30.993 0 56.221 25.167 56.221 56.16 0.001 30.994-25.228 56.19-56.221 56.19zM424.242 554.641c0 30.964-25.227 56.16-56.219 56.16-30.934 0-56.16-25.196-56.16-56.16 0-30.993 25.227-56.189 56.16-56.189 30.992 0 56.219 25.196 56.219 56.189zM512.009 895.42c-229.625 0-416.459-186.775-416.459-416.398 0-130.936 62.336-255.025 166.968-333.323l-59.19-96.94c-7.107-11.77-5.826-26.624 3.058-36.995 6.031-7.107 14.827-11.186 24.148-11.186 4.021 0 8.070 0.817 12.118 2.449l167.026 72.354c33.5-8.446 67.9-12.759 102.332-12.759 229.621 0 416.396 186.776 416.396 416.4 0 229.622-186.775 416.397-416.396 416.397zM512.009 126.125c-32.307 0-64.581 4.486-95.865 13.283-6.729 1.98-14.041 1.573-20.857-1.282l-87.211-39.032 24.235 39.325c8.972 14.854 4.545 33.791-10.049 43.111-102.184 65.305-163.151 176.519-163.151 297.494 0 194.552 158.285 352.896 352.898 352.896 194.58 0 352.896-158.344 352.896-352.896 0.001-194.611-158.316-352.897-352.896-352.897zM631.902 420.678c-7.866 3.233-16.488 3.205-24.323-0.060-7.836-3.319-13.922-9.437-17.098-17.244-0.789-1.864-19.602-44.915-75.065-44.915-57.734 0-72.705 38.506-74.221 42.761-5.417 16.603-23.332 25.632-39.79 20.329-8.096-2.562-14.68-8.095-18.583-15.67-3.904-7.515-4.633-16.138-2.040-24.176 1.108-3.496 28.517-86.748 134.634-86.748 99.008 0 132.45 80.98 133.819 84.358 6.614 16.138-1.165 34.722-17.332 41.364z" />
<glyph unicode="&#xe923;" glyph-name="shopping" d="M871.876 738.926h-139.347v58.517c0 52.166-45.030 97.956-96.237 97.956h-248.108c-51.497 0-96.702-45.79-96.702-97.956v-58.517h-139.348c-18.058 0-32.798-14.71-32.798-32.741v-566.093c0-76.926 59.595-139.491 132.764-139.491h520.216c72.993 0 132.301 62.566 132.301 139.491v566.094c0 18.031-14.681 32.74-32.742 32.74zM357.018 797.443c0 15.788 16.020 32.447 31.167 32.447h248.109c15.207 0 30.759-16.369 30.759-32.447v-58.517h-310.034v58.517zM839.14 140.092c0-40.806-29.944-74.013-66.823-74.013h-520.216c-37.108 0-67.226 33.206-67.226 74.013v4.718h654.265v-4.718zM839.14 203.532h-654.265v469.885h106.608v-78.411c-8.214-8.795-12.7-20.185-12.7-32.273 0-26.244 21.379-47.623 47.653-47.623 26.214 0 47.536 21.379 47.536 47.623 0 14.185-6.175 27.235-16.952 36.351v74.333h310.033v-74.333c-10.835-9.116-17.010-22.193-17.010-36.351 0-26.244 21.323-47.623 47.595-47.623 26.217 0 47.596 21.379 47.596 47.623 0 12.088-4.485 23.478-12.701 32.273v78.411h106.61v-469.885z" />
<glyph unicode="&#xe924;" glyph-name="close" d="M959.376 873.552l-21.847 21.846-425.551-425.531-425.552 425.531-21.846-21.846 425.54-425.541-425.54-425.519 21.846-21.89 425.552 425.552 425.551-425.552 21.847 21.89-425.542 425.519z" />
<glyph unicode="&#xe925;" glyph-name="filter" d="M695.323 671.694h-366.688c-22.235 0-40.368-18.253-40.368-40.681 0-8.446 2.524-16.457 7.258-23.204l-0.437-0.437 5.413-5.679c0.559-0.582 58.938-61.701 97.923-100.051 9.394-9.369 17.769-17.379 23.983-23.059 2.961-2.622 4.855-5.097 5.195-5.875 0.388-1.116 0.922-5.534 0.874-7.766-1.044-33.593-0.341-98.692-0.122-117.866l0.122-7.866h37.577v124.908c0.388 12.135 0.048 19.854-0.996 23.010-2.064 6.068-8.617 12.136-15.681 18.35l-2.404 2.088c-8.787 8.301-22.381 21.747-37.237 36.7-30.586 30.679-66.633 67.67-78.478 79.807l0.363 0.679-4.806 4.078c-0.412 0.34-1.092 1.116-1.092 2.185 0 1.7 1.311 3.059 2.913 3.059h366.688c1.601 0 2.914-1.359 2.914-3.059 0-1.019-0.609-1.748-1.094-2.136l-5.365-4.805 0.341-0.533c-18.74-19.515-91.175-94.42-117.124-118.207l-2.816-2.378c-6.408-5.486-11.918-10.389-13.57-16.165-1.189-4.030-1.091-6.893-0.922-11.36 0.074-2.234 0.171-5.146 0.171-9.175l0.048-241.946h30.319l7.21 1.602 0.874 7.087c0 0-0.825 171.215-0.825 231.023 0 1.699-0.049 6.893 0.485 8.301 0.607 1.262 3.738 4.467 5.802 6.457l121.566 122.818 5.923 6.262-0.511 0.437c4.493 6.65 6.943 14.466 6.943 22.718-0.003 22.428-18.136 40.681-40.37 40.681zM511.979 895.387c-247.137 0-447.424-200.247-447.424-447.387 0-247.093 200.288-447.387 447.424-447.387s447.424 200.295 447.424 447.387c0 247.141-200.289 447.387-447.424 447.387zM511.979 45.37c-222.401 0-402.686 180.247-402.686 402.63s180.284 402.678 402.686 402.678c222.402 0 402.686-180.295 402.686-402.678s-180.284-402.63-402.686-402.63z" />
<glyph unicode="&#xe926;" glyph-name="sort" d="M511.979 895.404c-247.125 0-447.404-200.255-447.404-447.404 0-247.102 200.278-447.404 447.404-447.404s447.404 200.302 447.404 447.404c0 247.148-200.277 447.404-447.404 447.404zM511.979 45.356c-222.391 0-402.668 180.251-402.668 402.644 0 222.39 180.277 402.691 402.668 402.691 222.39 0 402.669-180.301 402.669-402.691 0-222.393-180.279-402.644-402.669-402.644zM422.484 291.436l-81.778 91.025-31.627-31.604 113.405-126.559h44.758v447.404h-44.758zM556.713 671.702v-447.404h44.76v380.313l80.198-89.472 31.653 31.605-111.85 124.958z" />
<glyph unicode="&#xe927;" glyph-name="delete" d="M799.691 604.090c-17.622 0-31.895-14.090-31.895-31.423v-469.761c0-17.333-14.417-31.387-31.968-31.387h-447.478c-17.622 0-31.968 14.054-31.968 31.387v471.072c0 17.332-14.272 31.385-31.968 31.385-17.622 0-31.968-14.054-31.968-31.385v-471.072c0-51.922 43.036-94.158 95.904-94.158h447.478c52.794 0 95.832 42.236 95.832 94.158v469.761c0 17.333-14.272 31.423-31.968 31.423zM448.043 228.375v345.129c0 17.332-14.272 31.35-31.968 31.35-17.622 0-31.967-14.018-31.967-31.35v-345.13c0-17.333 14.346-31.35 31.967-31.35 17.696 0.001 31.968 14.018 31.968 31.351zM639.779 228.375v345.129c0 17.332-14.272 31.35-31.968 31.35-17.622 0-31.967-14.018-31.967-31.35v-345.13c0-17.333 14.346-31.35 31.967-31.35 17.695 0.001 31.968 14.018 31.968 31.351zM927.345 730.36h-159.695v62.772c0 51.921-42.672 94.12-95.176 94.12h-320.262c-52.868 0-95.904-42.199-95.904-94.12v-62.772h-159.767c-17.695 0-31.968-14.017-31.968-31.349 0-17.368 14.272-31.385 31.968-31.385h830.804c17.695 0 32.042 14.017 32.042 31.385 0 17.331-14.347 31.349-32.042 31.349zM703.715 730.36h-383.471v62.772c0 17.294 14.346 31.385 31.968 31.385h320.262c17.477 0 31.241-13.836 31.241-31.385v-62.772z" />
<glyph unicode="&#xe928;" glyph-name="introduce" d="M283.572 530.15h360.225c6.552 0 11.844 8.883 11.844 19.805 0 10.946-5.292 19.782-11.844 19.782h-360.225c-6.601 0-11.892-8.835-11.892-19.782 0-10.922 5.292-19.805 11.892-19.805zM283.572 438.794h360.225c6.552 0 11.844 8.835 11.844 19.757 0 10.971-5.292 19.83-11.844 19.83h-360.225c-6.601 0-11.892-8.859-11.892-19.83 0-10.921 5.292-19.757 11.892-19.757zM787.19 895.352h-551.867c-0.243 0-0.486-0.025-0.777-0.049-0.243 0.025-0.486 0.049-0.777 0.049-60.386 0-109.571-50.58-109.571-112.761v-659.168c0-8.326 3.253-16.237 9.053-21.965l89.546-88.855c11.505-11.36 29.658-11.36 41.115 0l91.355 90.627 94.801-94.025c11.504-11.407 29.658-11.407 41.164 0l94.752 94.025 94.802-94.025c5.778-5.679 13.154-8.544 20.581-8.544 7.379 0 14.855 2.864 20.583 8.544l85.771 85.14c5.825 5.753 9.078 13.642 9.078 21.942v557.595c47.764 13.107 82.956 56.842 82.956 108.709 0.001 62.181-50.481 112.761-112.567 112.761zM764.472 121.432l-57.57-57.133-97.082 96.353c-11.747 11.65-30.338 11.65-42.087 0l-97.081-96.353-97.083 96.353c-11.748 11.65-30.338 11.65-42.086 0l-93.587-92.81-61.356 60.87v661.79c0 29.246 23.154 53.055 51.551 53.055 0.292 0 0.485 0.073 0.728 0.073 0.292 0 0.582-0.073 0.874-0.073h0.097c30.047-0.073 54.513-23.857 54.513-53.055 0-29.271-24.513-53.080-54.609-53.080-16.796 0-30.338-13.956-30.338-31.188 0-17.256 13.542-31.236 30.338-31.236h534.78v-553.566zM790.685 726.233l-15.97-1.481-472.356 3.034c28.736 14.101 28.785 42.449 28.736 50.968-0.049 31.819-4.903 45.872-13.009 61.551l472.938 0.801c29.707 0 60.628-31.115 60.628-59.948 0-28.835-31.309-54.925-60.968-54.925zM283.572 347.367h360.225c6.552 0 11.844 8.835 11.844 19.782 0 10.922-5.292 19.804-11.844 19.804h-360.225c-6.601 0-11.892-8.882-11.892-19.804 0-10.946 5.292-19.782 11.892-19.782z" />
<glyph unicode="&#xe929;" glyph-name="feature" d="M124.36 478.162h-29.823c-16.452 0-29.822-13.369-29.822-29.847 0-16.452 13.371-29.798 29.822-29.798h29.823c16.476 0 29.847 13.346 29.847 29.798 0 16.477-13.371 29.847-29.847 29.847zM512.148 805.941c16.452 0 29.823 13.346 29.823 29.847v29.799c0 16.477-13.371 29.847-29.823 29.847-16.476 0-29.847-13.369-29.847-29.847v-29.799c0-16.501 13.371-29.847 29.847-29.847zM238.020 692.524c7.62 0 15.263 2.936 21.111 8.736 11.647 11.696 11.647 30.574 0 42.223l-21.111 21.063c-11.672 11.622-30.55 11.622-42.222 0-11.623-11.673-11.623-30.551 0-42.223l21.135-21.063c5.848-5.824 13.442-8.736 21.086-8.736zM570.191 62.614h-116.16c-17.398 0-31.496-14.099-31.496-31.57 0-17.375 14.098-30.478 31.496-30.478h116.159c17.375 0 31.523 13.104 31.523 30.478 0 17.471-14.148 31.57-31.522 31.57zM929.419 477.821h-29.798c-16.501 0-29.848-13.346-29.848-29.822s13.347-29.823 29.848-29.823h29.798c16.476 0 29.823 13.346 29.823 29.823s-13.347 29.822-29.823 29.822zM512.148 746.297c-161.681 0-298.296-141.856-298.296-309.726 0-110.092 60.347-211.791 155.299-264.277v-25.211c0-31.447 26.619-57.026 59.353-57.026h164.084c9.244 0 18.368 1.967 24.752 5 22.445 8.687 36.908 29.118 36.908 52.026v24.703c95.436 52.366 156.149 154.233 156.149 264.786 0.024 167.869-136.593 309.726-298.249 309.726zM611.831 217.162l-17.204-8.008v-59.111c-0.171 0-0.316 0-0.56-0.097-0.144-0.048-0.655-0.24-1.479-0.24h-160.929l-2.475-2.622-0.411 62.361-17.132 8.106c-83.935 39.456-138.169 125.453-138.169 219.069 0 135.524 109.269 250.033 238.628 250.033 129.385 0 238.629-114.51 238.629-250.033 0.047-94.003-54.477-180.147-138.897-219.457zM786.203 764.35l-21.086-21.111c-11.671-11.647-11.671-30.526 0-42.223 5.823-5.799 13.443-8.735 21.086-8.735s15.264 2.936 21.087 8.735l21.086 21.063c11.671 11.696 11.671 30.574 0 42.223-11.647 11.647-30.551 11.647-42.174 0.048z" />
<glyph unicode="&#xe92a;" glyph-name="recommend" d="M250.635 0.69c-0.122-0.095-0.024-0.095 0.292-0.045 0.316-0.050 0.462-0.050 0.316 0.045 0.243 0.050 0.388 0.050-0.316 0.050-0.705 0-0.558 0-0.292-0.050zM172.891 488.77c15.097 0 27.33 12.672 27.33 28.206 0 15.582-12.234 28.204-27.33 28.204-0.268 0-0.511-0.17-0.777-0.17l-65.342-0.171c-1.482 0.193-3.035 0.341-4.564 0.341-20.584 0-37.26-17.38-37.26-38.934l-0.363-467.057c0-21.507 16.725-38.376 37.308-38.376 1.989 0 3.981-0.317 5.898 0h63.813c0.122 0 0.146-0.073 0.266-0.073 0.122 0 0.147 0.073 0.269 0.073h0.752v0.121c14.029 0.632 25.291 12.332 25.291 26.919 0 14.636-11.261 26.337-25.291 26.919v0.438h-53.28l1.506 433.561h51.773zM942.825 529.209c-20.194 33.837-49.492 47.576-84.979 49.031-1.869 0.294-3.715 0.438-5.631 0.438l-214.838 0.777c14.078 42.090 23.738 92.212 23.738 139.351 0 30.584-3.325 60.341-9.444 89.007l-0.533-0.097c-11.142 50.246-54.079 87.674-105.538 87.674-59.906 0-99.858-51.895-99.858-114.422 0-3.496-0.316-6.846 0-10.244-3.131-116.848-95.393-210.785-205.179-223.649v-59.179l-0.849-239.524v-247.631l543.201 0.023c20.218-0.023 31.628 5.22 49.978 17.404 17.426 11.554 30.586 27.479 39.202 45.438 2.354 3.567 4.223 7.573 5.364 12.040l80.515 371.133c1.092 4.368 1.405 8.787 1.092 13.084 1.673 23.521-3.449 47.744-16.239 69.347zM908.601 472.167l-86.75-396.376-0.099 0.048c-2.669-6.649-7.208-12.523-13.447-16.651-4.368-2.937-9.173-4.683-14.027-5.339-1.58 0.168-3.181 0-4.855 0l-498.784 0.582-0.17 439.095c93.377 43.4 161.898 85.877 197.191 187.192 0.098 0 0.122-0.048 0.197-0.097 3.178 9.878 6.626 22.381 9.101 35.779 5.824 31.457 5.508 62.671 5.508 62.671-5.143 40.876 27.138 57.042 46.41 57.042 26.436-0.922 52.552-36.264 52.552-56.41 0 0 5.852-29.711 5.897-61.654 0.049-40.27-4.901-61.242-4.901-61.242h-0.464c-6.164-33.278-16.966-64.832-31.846-93.765l0.389-0.341c-2.499-5.193-3.906-11.019-3.906-17.183 0-21.482 19.977-23.449 40.561-23.449l249.647-0.242c0 0 15.314-0.534 15.364-0.534v-0.097c12.671 0.655 25.293-5.631 32.5-17.695 5.732-9.734 6.749-21.14 3.642-31.238l0.289-0.097z" />
<glyph unicode="&#xe92b;" glyph-name="hook" d="M339.625 474.868c-9.903 9.394-25.85 9.394-35.68 0l-8.883-8.592c-9.83-9.466-9.83-24.757 0-34.223l218.156-197.22 44.563 42.778-0.799 0.728 392.328 321.918c10.049 9.685 10.049 25.34 0 34.879l-9.031 8.738c-10.047 9.685-26.21 9.685-36.261 0l-394.004-323.155-170.39 154.149zM959.357 282.2c0 15.217-11.287 27.523-25.196 27.523-12.234 0-22.352-9.465-24.681-22.099l-3.861 1.783c-63.568-138.058-207.38-234.39-374.708-234.39-226.238 0-409.586 175.993-409.586 392.984 0 216.99 183.349 392.985 409.586 392.985 98.302 0 188.374-33.422 258.931-88.835 4.589-5.243 11.068-8.664 18.35-8.664 13.909 0 25.194 12.379 25.194 27.633 0 6.188-1.965 11.942-5.169 16.528l2.622 2.839c-81.119 65.426-185.753 104.892-299.928 104.892-257.548 0-466.31-200.244-466.31-447.378 0-247.062 208.763-447.378 466.31-447.378 189.903 0 353.229 109.077 425.897 265.411l-1.747 0.731c2.692 4.44 4.296 9.755 4.296 15.437z" />
<glyph unicode="&#xe92c;" glyph-name="ticket" d="M915.496 522.984c26.163 8.691 43.809 33.086 43.859 60.635l0.023 87.599c0.074 25.656-9.927 49.689-28.032 67.842-18.11 18.011-42.114 28.012-67.725 28.061l-702.847 0.58c-52.745 0.098-95.805-42.914-95.805-95.636l-0.097-88.014c-0.024-17.378 6.991-33.545 18.737-45.194 6.701-6.822 15.027-12.137 24.494-15.392 12.209-4.124 22.549-10.387 30.753-18.591 31.070-31.119 31.094-81.827-0.097-112.918-8.156-8.206-18.522-14.369-30.804-18.545-25.803-8.809-43.303-33.107-43.303-60.489l-0.073-88.11c-0.048-25.684 9.952-49.709 27.987-67.818 18.157-18.159 42.139-28.16 67.699-28.16l702.845-0.555c52.795-0.027 95.905 42.911 95.905 95.658l0.097 88.013c0 17.353-7.016 33.426-18.74 45.15-6.845 6.893-15.364 12.283-24.928 15.486-12.549 4.221-23.082 10.486-31.312 18.739-31.045 31.215-31.045 81.847 0.049 112.966 8.327 8.231 18.839 14.52 31.315 18.693zM838.935 346.182c16.338-16.361 35.754-27.335 56.24-34.174l-0.095-88.021c-0.047-17.569-14.273-31.815-31.917-31.794l-702.8 0.533c-8.738 0.074-16.799 3.596-22.648 9.369-5.751 5.732-9.249 13.787-9.32 22.674l0.072 88.108c20.221 6.894 39.298 17.768 55.416 33.888 56.242 56.068 56.313 147.092 0.169 203.357-16.117 16.022-35.172 26.993-55.342 33.861l0.075 88.015c0.024 17.597 14.369 31.87 31.967 31.87l702.845-0.583c8.837-0.024 16.822-3.641 22.553-9.369 5.8-5.825 9.417-13.834 9.296-22.646l0.048-87.648c-20.654-6.799-40.002-17.793-56.386-34.079-56.213-56.121-56.287-147.147-0.171-203.36zM639.656 383.997l-255.499 0.22c-17.621 0.025-32.015-14.3-31.991-31.92-0.025-17.621 14.298-31.946 31.895-31.994l255.522-0.242c17.72 0 32.087 14.371 31.991 31.945 0.097 17.643-14.224 31.991-31.918 31.991zM639.827 575.657l-255.549 0.243c-17.574 0-31.967-14.323-31.967-31.944s14.347-31.993 31.919-31.967l255.571-0.17c17.671-0.097 31.916 14.273 31.943 31.871 0.097 17.645-14.224 31.967-31.916 31.967z" />
<glyph unicode="&#xe92d;" glyph-name="nav" d="M162.419 545.876c54.029 0 97.876-43.826 97.876-97.876 0-54.073-43.848-97.876-97.876-97.876-54.094 0-97.876 43.805-97.876 97.876 0 54.051 43.782 97.876 97.876 97.876v0zM511.979 545.876c54.029 0 97.876-43.826 97.876-97.876 0-54.073-43.849-97.876-97.876-97.876-54.094 0-97.876 43.805-97.876 97.876-0.001 54.051 43.782 97.876 97.876 97.876v0zM861.538 545.876c54.027 0 97.875-43.826 97.875-97.876 0-54.073-43.849-97.876-97.875-97.876-54.095 0-97.877 43.805-97.877 97.876 0 54.051 43.782 97.876 97.877 97.876v0z" />
<glyph unicode="&#xe92e;" glyph-name="empty" d="M511.971 895.399c-247.1 0-447.409-200.307-447.409-447.399s200.309-447.399 447.409-447.399c247.114 0 447.422 200.308 447.422 447.399s-200.308 447.399-447.422 447.399zM748.443 244.139l-32.607-32.605-203.86 203.861-203.862-203.861-32.602 32.605 203.86 203.861-203.86 203.861 32.602 32.608 203.862-203.86 203.86 203.86 32.607-32.608-203.86-203.861 203.86-203.861z" />
<glyph unicode="&#xe92f;" glyph-name="discount" d="M630.119 455.333c2.912 0 5.921 0.097 8.786 0.582 7.575 1.215 14.418 5.681 18.884 12.187 4.468 6.553 6.069 14.637 4.468 22.162-3.107 14.517-14.759 23.571-30.441 23.643-18.837 0.047-37.721 0.024-56.559 0.024h-17.235c21.945 21.871 43.839 43.791 65.784 65.688l9.661 9.66c6.797 6.773 13.595 13.546 20.292 20.414 7.672 7.89 10.487 18.741 7.624 29.033-2.817 10-10.633 17.452-20.829 20.074-10.776 2.694-20.779-0.266-29.418-8.932-20.149-20.244-40.345-40.44-60.541-60.613l-37.869-37.892c-0.24-0.267-0.486-0.559-0.776-0.85-0.193 0.218-0.39 0.389-0.583 0.607-32.383 32.528-64.86 64.982-97.582 97.656-1.748 1.748-3.496 3.472-5.487 4.975-6.602 5.075-15.051 7.040-23.109 5.512-8.156-1.553-15.292-6.53-19.565-13.644-7.332-12.015-5.243-26.142 5.389-36.824l94.865-94.865h-14.954c-19.661 0.024-39.324 0.050-59.035-0.048-16.458-0.073-29.032-10.68-30.536-25.803-0.874-8.789 1.601-16.945 7.038-22.942 5.631-6.286 14.031-9.782 23.594-9.831 21.265-0.073 42.579-0.047 63.794-0.024h26.606v-38.863h-23.402c-22.38-0.073-44.859 0-67.289 0.047-0.048 0-0.144 0-0.194 0-8.156 0-14.806-2.307-20.293-7.088-9.079-7.84-12.476-20.707-8.398-32.017 4.175-11.675 14.954-19.273 27.43-19.347 21.896-0.024 43.79-0.024 65.59-0.024h26.216l0.583-26.874c0-21.261 0-42.503-0.048-63.765 0-10.076 3.496-18.134 10.436-23.937 5.632-4.756 12.041-7.159 18.596-7.159 3.983 0 8.009 0.849 11.991 2.621 11.265 4.926 17.477 14.442 17.477 26.75 0.1 22.043 0.1 44.060 0.050 66.078v26.287h22.137c22.916-0.023 45.83-0.071 68.698 0.123 4.955 0.021 9.953 1.018 14.13 2.838 12.282 5.389 19.030 18.959 16.071 32.31-3.061 13.763-14.324 23.037-28.113 23.108-22.136 0.074-44.275 0.050-66.461 0.050h-26.122v38.886l88.651 0.028zM959.376 684.678v15.559c-0.096 52.529-38.306 90.641-90.738 90.641-171.961 0.024-343.92 0.073-515.88 0.024-70.203 0-172.64 0-197.741-0.024-51.402 0-90.288-38.864-90.435-90.423-0.048-16.966-0.048-33.935-0.025-50.879l0.025-77.363c0.025-29.178 14.128-49.591 41.874-60.685 6.189-2.475 12.185-5.996 17.988-9.419 1.966-1.14 3.933-2.306 5.923-3.399l-0.243-0.485 1.214-1.481c0.85-1.045 1.724-2.039 2.573-3.083 1.966-2.281 3.787-4.442 5.365-6.772 12.003-17.988 15.305-39.592 8.994-59.256-6.299-19.661-21.545-35.319-41.764-42.94-27.794-10.462-41.897-30.852-41.922-60.615v-27.916h-0.025l0.025-100.908c0.193-51.289 38.985-89.986 90.192-90.008l434.464-0.049c18.934-1.456 35.295 13.134 35.295 31.531 0 17.115-13.692 31.001-31.169 31.63h-435.532c-20.816 0-30.137 9.321-30.137 30.248v72.483c0.026 16.991 0.049 34.032-0.122 51.072-0.024 2.646 0.389 3.255 3.011 4.273 39.142 15.121 68.028 46.775 79.292 86.95 11.118 39.932 2.963 81.782-22.477 114.771-14.855 19.298-33.936 33.352-56.692 41.726-2.647 0.971-3.156 1.748-3.133 4.758 0.049 3.811 0.074 32.941 0.074 58.381l0.024 16.554c0.025 8.302 0.025 16.58 0.025 24.882-0.025 8.301-0.025 16.579 0 24.881 0.026 18.352 10.098 28.45 28.39 28.45l711.824-0.025c18.254 0 28.304-10.123 28.352-28.475l0.050-58.258c0-30.246 0.048-62.846 0.095-66.439 0-2.694-0.435-3.301-3.006-4.296-38.454-14.735-67.339-45.297-79.184-83.893-11.897-38.621-5.195-80.155 18.351-113.944 2.817-4.031 6.020-7.794 9.127-11.433 1.505-1.747 2.965-3.474 4.661-5.487 13.353-13.085 29.323-23.011 47.336-29.541 2.282-0.849 2.717-1.432 2.67-3.86-0.048-3.518-0.048-7.065-0.048-10.582l-0.050-13.546c0-11.192 0-22.382 0-33.524v-67.653c0-18.354-10.098-28.452-28.352-28.475h-38.499c-17.525-0.291-31.753-14.49-31.753-31.63 0-17.452 14.471-31.654 32.289-31.654 1.165 0 2.281 0.073 3.154 0.171h35.925c51.366 0.021 90.204 38.936 90.35 90.518v128.218c0 29.299-14.127 49.715-41.995 60.637-10.193 4.031-18.35 8.839-24.176 14.251-17.333 16.095-24.907 39.373-20.342 62.215 4.709 23.376 21.168 42.311 43.984 50.732 28.208 10.342 42.53 30.78 42.53 60.76v76.999c0.049 11.702 0.049 23.4-0.001 35.101z" />
<glyph unicode="&#xe930;" glyph-name="give" d="M871.374 684.137h-95.797c12.779 26.129 18.941 54.791 17.149 83.431-2.141 33.994-15.816 63.967-36.57 80.221-16.143 12.604-37.597 19.29-62.020 19.29-47.145 0-100.255-24.795-142.025-66.281-17.52-17.368-30.344-35.763-40.132-53.733-9.787 17.958-22.611 36.354-40.111 53.711-41.813 41.507-94.923 66.302-142.045 66.302-24.467 0-45.898-6.685-62.065-19.312-20.733-16.233-34.409-46.205-36.528-80.2-1.813-28.64 4.327-57.302 17.128-83.431h-95.796c-48.521 0-87.996-39.475-87.996-87.996v-39.935c0-45.736 35.216-82.984 79.847-87.178v-292.207c0-81.53 66.371-147.898 147.923-147.898h439.264c81.551 0 147.9 66.369 147.9 147.898v292.206c44.674 4.172 79.891 41.442 79.891 87.178v39.935c-0.001 48.522-39.477 87.997-88.019 87.997zM287.289 764.030c1.268 20.098 8.52 34.321 15.117 39.498 6.138 4.806 15.619 7.362 27.416 7.362 32.639 0 70.936-18.699 102.46-50.005 20.93-20.711 36.723-47.559 45.397-76.748h-162.974c-19.203 23.135-29.144 51.975-27.416 79.894zM172.203 524.418h-19.64c-17.521 0-31.788 14.243-31.788 31.787v39.935c0 17.542 14.267 31.807 31.788 31.807h331.321v-103.53h-311.681zM292.335 85.135c-50.575 0-91.712 41.133-91.712 91.686v291.385h283.26v-371.234c0-4.27 1.114-8.214 2.842-11.838h-194.39zM591.675 760.884c31.502 31.306 69.819 50.005 102.461 50.005 11.62 0 21.341-2.621 27.413-7.362 6.599-5.178 13.83-19.4 15.098-39.476 1.769-27.941-8.193-56.78-27.416-79.915h-162.975c8.694 29.166 24.51 56.037 45.419 76.748zM823.311 176.821c0-50.552-41.137-91.686-91.712-91.686h-194.366c1.725 3.624 2.84 7.568 2.84 11.838v371.234h283.238v-291.385zM903.181 556.205c0-17.544-14.265-31.787-31.807-31.787h-331.3v103.53h331.3c17.543 0 31.807-14.266 31.807-31.807v-39.936z" />
<glyph unicode="&#xe931;" glyph-name="minus" d="M64.581 518.634h894.795v-141.266h-894.795v141.266z" />
<glyph unicode="&#xe932;" glyph-name="plus" d="M959.392 518.637h-376.775v376.777h-141.275v-376.777h-376.777v-141.273h376.777v-376.778h141.275v376.778h376.775z" />
<glyph unicode="&#xe933;" glyph-name="radiobox" d="M511.972 895.42c-247.13 0-447.41-200.378-447.41-447.42 0-247.13 200.279-447.419 447.41-447.419 247.085 0 447.42 200.29 447.42 447.419 0 247.042-200.335 447.42-447.42 447.42zM767.447 587.338l-289.513-342.163c-5.155-5.155-11.841-7.735-18.613-7.735-6.728 0-13.456 2.58-18.612 7.735l-139.297 139.293-7.734-7.733c-10.268-10.268-26.915-10.268-37.183 0-10.312 10.267-10.312 26.96 0 37.227l26.347 26.303c10.225 10.313 26.916 10.313 37.183 0l139.294-139.337 270.857 323.593c10.354 10.312 27.002 10.312 37.27 0 10.311-10.312 10.311-26.959 0-37.183z" />
<glyph unicode="&#xe934;" glyph-name="radio" d="M511.979 895.35c-246.654 0-447.35-200.696-447.35-447.35 0-246.698 200.696-447.35 447.35-447.35s447.35 200.652 447.35 447.35c0 246.654-200.696 447.35-447.35 447.35zM511.979 43.288c-223.237 0-404.755 181.518-404.755 404.712s181.517 404.711 404.755 404.711c223.194 0 404.756-181.517 404.756-404.711s-181.562-404.712-404.756-404.712z" />
<glyph unicode="&#xe935;" glyph-name="user" d="M511.979 895.466c-144.448 0-261.944-118.055-261.944-263.2 0-98.618 53.592-187.342 140.392-233.102-58.030-18.983-111.621-52.125-155.286-95.996-73.972-74.287-114.697-173.045-114.697-278.164 0-13.529 10.942-24.47 24.367-24.47s24.33 10.941 24.33 24.47c0 92.011 35.657 178.462 100.47 243.59 62.086 62.437 144.692 98.199 232.333 100.681 3.321-0.105 6.677-0.175 10.034-0.175 144.448 0 261.944 118.054 261.944 263.167-0.001 145.147-117.496 263.2-261.944 263.2zM515.93 418.076h-0.036c-1.329 0.21-2.622 0.314-3.987 0.314-3.285 0-6.641-0.035-9.683-0.104-114.104 5.173-203.493 99.177-203.493 213.979 0 118.158 95.68 214.259 213.246 214.259s213.212-96.1 213.212-214.259c0-116.062-93.828-212.058-209.26-214.189zM788.778 303.203l-4.718 4.718v-1.085c-9.194 5.63-21.954 4.126-29.714-3.67-9.44-9.509-9.44-25.065 0-34.61 64.778-65.091 100.47-151.543 100.47-243.554 0-13.529 10.872-24.47 24.33-24.47 13.425 0 24.366 10.941 24.366 24.47-0.001 105.052-40.727 203.809-114.734 278.2z" />
<glyph unicode="&#xe936;" glyph-name="home" d="M951.392 525.948l-404.39 355.138c-11.43 10.416-23.489 14.365-34.955 14.33-14.4-0.14-26.669-6.712-35.268-14.506v-0.104l-404.213-354.858c-9.683-8.528-10.73-23.419-2.342-33.311 8.389-9.823 23.175-10.976 32.823-2.412l404.913 355.485c1.469 1.364 3.18 2.517 4.264 2.517 0.628 0 1.642-0.595 3.355-2.167 0.453-0.385 0.874-0.77 1.398-1.153l325.39-285.683v-487.649c0-6.468-2.622-12.443-6.815-16.605l-0.14-0.14c-4.124-4.264-9.997-6.886-16.394-6.886h-182.391v205.64c0 19.365-7.759 37.016-20.308 49.914l-0.246 0.176-0.070 0.034v0.105c-12.759 12.794-30.27 20.832-49.426 20.832h-109.162c-19.225 0-36.737-7.97-49.495-20.832l-0.035-0.105c-12.724-12.899-20.553-30.62-20.553-50.124v-205.638h-182.322c-6.431 0-12.269 2.691-16.499 7.026-4.264 4.23-6.921 10.172-6.921 16.605v350.139c0 13.107-10.416 23.663-23.315 23.663s-23.385-10.555-23.385-23.663v-350.14c0-19.505 7.865-37.264 20.624-50.161 12.618-12.862 30.165-20.831 49.495-20.831h205.636c12.934 0 23.419 10.661 23.419 23.7v229.301c0 6.536 2.587 12.479 6.816 16.778 4.23 4.3 10.102 6.922 16.534 6.922h109.162c6.466 0 12.268-2.622 16.429-6.922l0.071-0.035c4.229-4.263 6.814-10.207 6.814-16.742v-229.3c0-13.039 10.522-23.7 23.386-23.7h205.742c19.121 0 36.667 7.97 49.391 20.831l0.070 0.035 0.071 0.104 0.174 0.247c12.585 12.898 20.378 30.514 20.378 49.776v446.576l31.775-27.928c9.717-8.564 24.432-7.411 32.857 2.412 8.388 9.891 7.34 24.781-2.341 33.311z" />
</font>
</defs>
</svg>
